<svg width="325" height="329" viewBox="0 0 325 329" fill="none" xmlns="http://www.w3.org/2000/svg">
<path d="M140.95 97.7094C140.179 97.1315 140.223 96.0595 140.969 95.4504C143.616 93.2889 150.818 88.6823 164.848 87.8476C178.876 88.6823 186.078 93.2889 188.726 95.4504C189.472 96.0595 189.516 97.1316 188.745 97.7095C183.149 101.907 167.769 102.806 164.848 102.778C161.927 102.806 146.546 101.907 140.95 97.7094Z" fill="black"/>
<path d="M208.009 107.077C208.493 106.647 208.707 105.998 208.494 105.387C207.528 102.619 203.385 95.4666 187.377 102.746C187.321 102.772 187.267 102.794 187.208 102.814C186.222 103.148 176.367 106.381 164.85 106.381C153.581 106.381 143.536 103.159 142.497 102.816C142.434 102.795 142.375 102.771 142.315 102.743C126.31 95.4685 122.169 102.62 121.204 105.387C120.991 105.998 121.205 106.646 121.688 107.077C134.936 118.861 164.415 118.728 164.527 118.727C164.531 118.727 164.529 118.727 164.533 118.727L165.166 118.727C165.17 118.727 165.168 118.727 165.172 118.727C165.284 118.728 194.761 118.861 208.009 107.077Z" fill="black"/>
<path d="M223.211 121.804C223.475 121.531 223.645 121.19 223.677 120.811C223.87 118.499 223.735 109.989 211.256 110.281C210.679 110.295 210.136 110.571 209.72 110.971C207.186 113.413 196.219 121.909 165.576 122.847L164.124 122.847C133.48 121.909 122.513 113.413 119.979 110.971C119.563 110.571 119.02 110.295 118.443 110.281C105.964 109.989 105.829 118.499 106.022 120.812C106.054 121.19 106.223 121.531 106.488 121.804C122.069 137.877 163.756 137.235 164.121 137.229C164.133 137.228 164.13 137.229 164.141 137.229L165.559 137.229C165.57 137.229 165.567 137.228 165.578 137.229C165.944 137.235 207.629 137.877 223.211 121.804Z" fill="black"/>
<path d="M227.254 125.913C226.482 125.327 225.392 125.408 224.63 126.006C220.112 129.548 203.044 140.605 165.576 141.013L164.129 141.013C126.66 140.605 109.592 129.548 105.074 126.006C104.312 125.408 103.222 125.327 102.45 125.913C89.704 135.579 97.9785 140.983 98.9655 141.569C99.0299 141.607 99.0888 141.643 99.1505 141.686C123.427 158.465 164.044 158.323 164.129 158.322C164.131 158.322 164.13 158.322 164.133 158.322L165.572 158.322C165.575 158.322 165.574 158.322 165.576 158.322C165.661 158.323 206.277 158.465 230.553 141.686C230.615 141.643 230.674 141.607 230.739 141.569C231.725 140.983 240 135.579 227.254 125.913Z" fill="black"/>
<path d="M239.159 142.553C238.457 142.041 237.496 142.082 236.787 142.585C231.383 146.415 207.348 161.697 166.294 162.975H163.404C122.349 161.697 98.3144 146.415 92.91 142.585C92.2007 142.082 91.2399 142.041 90.5376 142.553C80.2262 150.081 84.3364 157.185 84.5708 157.571C84.5786 157.584 84.5847 157.593 84.5926 157.606C97.7685 179.295 162.99 180.605 163.402 180.613C163.414 180.614 163.41 180.613 163.423 180.613H166.275C166.288 180.613 166.284 180.614 166.296 180.613C166.708 180.605 231.929 179.295 245.105 157.606C245.112 157.593 245.118 157.584 245.126 157.571C245.361 157.185 249.471 150.081 239.159 142.553Z" fill="black"/>
<path d="M248.826 163.77C248.063 162.918 246.715 162.93 245.857 163.686C240.126 168.741 217.426 185.298 166.294 184.885H163.407C112.276 185.298 89.575 168.742 83.8438 163.686C82.9861 162.93 81.6374 162.918 80.8747 163.771C70.7405 175.094 78.5148 182.449 79.1552 183.021C79.1853 183.048 79.2104 183.07 79.2397 183.098C102.643 205.327 163.233 204.874 163.407 204.872C163.412 204.872 163.41 204.872 163.415 204.872H166.286C166.292 204.872 166.29 204.872 166.295 204.872C166.468 204.874 227.058 205.327 250.463 183.098C250.492 183.07 250.517 183.048 250.547 183.021C251.188 182.448 258.963 175.093 248.826 163.77Z" fill="black"/>
<path fill-rule="evenodd" clip-rule="evenodd" d="M166.3 208.616C218.059 208.342 244.946 192.322 252.056 187.347C253.088 186.624 254.583 186.924 255.13 188.06C261.928 202.186 254.696 209.282 254.049 209.877C254.016 209.907 253.987 209.93 253.95 209.957C237.356 222.31 196.253 227.066 176.507 228.683C175.328 228.779 174.343 227.831 174.313 226.648C174.156 220.557 172.627 212.438 165.584 212.438H165.579C158.493 212.438 156.989 220.658 156.848 226.761C156.821 227.943 155.843 228.893 154.665 228.8C135.565 227.304 92.7697 222.625 75.75 209.957C75.7134 209.93 75.6845 209.907 75.6509 209.877C75.0039 209.282 67.7728 202.186 74.5704 188.06C75.1171 186.924 76.6119 186.624 77.6448 187.347C84.7543 192.322 111.641 208.342 163.402 208.616L166.3 208.616Z" fill="black"/>
<path d="M164.97 10.299C163.424 10.2958 161.985 11.0921 161.174 12.4029L153.125 25.3498C151.862 25.4505 150.599 25.5707 149.346 25.7067L138.979 14.5412C137.929 13.4123 136.365 12.9064 134.852 13.2012C133.332 13.5018 132.081 14.5601 131.538 16.0101L126.183 30.2389C124.949 30.5903 123.727 30.9615 122.508 31.3423L110.187 22.4372C108.935 21.5292 107.299 21.3351 105.871 21.928C104.445 22.5149 103.422 23.802 103.171 25.3234L100.689 40.3341C99.5553 40.9187 98.4333 41.5237 97.3142 42.1378L83.4818 35.7952C82.0762 35.1493 80.4376 35.2797 79.1557 36.1383C77.8679 36.9909 77.1116 38.4546 77.1674 39.9973L77.6704 55.2347C76.6836 56.0201 75.7057 56.8252 74.7395 57.6373L59.9048 54.1083C58.3984 53.7543 56.819 54.1979 55.7255 55.2871C54.626 56.3791 54.1744 57.9579 54.5253 59.4658L57.9932 74.3149C57.1801 75.2747 56.3723 76.2439 55.5828 77.2274L40.3476 76.666C38.811 76.6186 37.3414 77.3542 36.4804 78.6384C35.6165 79.9167 35.4824 81.5561 36.1196 82.9673L42.4052 96.8298C41.7895 97.9405 41.1769 99.0601 40.5876 100.197L25.5711 102.609C24.0457 102.854 22.7562 103.868 22.1604 105.295C21.5676 106.724 21.7591 108.357 22.6562 109.613L31.5105 121.967C31.1216 123.184 30.7441 124.404 30.3876 125.637L16.137 130.934C14.6907 131.47 13.6227 132.717 13.3187 134.235C13.0148 135.751 13.5143 137.314 14.6417 138.373L25.7603 148.781C25.619 150.034 25.4966 151.299 25.3878 152.558L12.408 160.555C11.0939 161.363 10.2916 162.793 10.2884 164.341C10.2852 165.89 11.0816 167.326 12.3924 168.137L25.3392 176.186C25.4428 177.449 25.5601 178.707 25.6962 179.961L14.5349 190.328C13.4031 191.378 12.8972 192.941 13.1949 194.455C13.4926 195.975 14.5554 197.227 15.9996 197.773L30.2283 203.124C30.5797 204.358 30.9522 205.584 31.336 206.803L22.431 219.12C21.5259 220.375 21.3276 222.006 21.9175 223.432C22.5074 224.864 23.797 225.888 25.3214 226.136L40.3236 228.609C40.9082 229.749 41.5102 230.869 42.1273 231.988L35.7847 245.817C35.1389 247.222 35.2692 248.859 36.1278 250.147C36.9864 251.438 38.45 252.194 39.9869 252.135L55.22 251.632C56.0113 252.625 56.8105 253.597 57.6226 254.563L54.0936 269.402C53.7366 270.906 54.1817 272.476 55.2766 273.573C56.3627 274.675 57.9432 275.12 59.4511 274.769L74.3002 271.305C75.263 272.127 76.2377 272.925 77.2212 273.711L76.6556 288.951C76.5933 290.493 77.3437 291.958 78.6279 292.822C79.9063 293.683 81.5444 293.815 82.9526 293.174L96.8109 286.893C97.9245 287.515 99.044 288.121 100.178 288.711L102.599 303.723C102.843 305.251 103.858 306.544 105.284 307.134C106.708 307.729 108.347 307.539 109.602 306.642L121.956 297.784C123.174 298.172 124.394 298.55 125.626 298.906L130.923 313.153C131.46 314.599 132.706 315.673 134.225 315.971C135.74 316.281 137.303 315.779 138.358 314.648L148.77 303.525C150.023 303.673 151.286 303.796 152.548 303.911L160.544 316.89C161.35 318.199 162.785 319.007 164.331 319.01C165.876 319.013 167.317 318.214 168.13 316.906L176.176 303.959C177.439 303.85 178.701 303.731 179.955 303.589L190.317 314.755C191.368 315.89 192.931 316.399 194.445 316.095C195.964 315.8 197.22 314.734 197.762 313.29L203.113 299.066C204.347 298.714 205.573 298.342 206.792 297.958L219.11 306.867C220.361 307.77 221.996 307.966 223.421 307.377C224.85 306.793 225.874 305.501 226.125 303.977L228.603 288.975C229.737 288.39 230.859 287.779 231.978 287.171L245.81 293.509C247.216 294.155 248.852 294.03 250.136 293.175C251.424 292.316 252.178 290.857 252.125 289.311L251.626 274.07C252.613 273.284 253.589 272.494 254.553 271.676L269.387 275.2C270.894 275.558 272.472 275.12 273.562 274.022C274.662 272.93 275.113 271.361 274.763 269.856L271.295 255.002C272.111 254.04 272.918 253.071 273.705 252.081L288.94 252.647C290.477 252.712 291.946 251.962 292.807 250.675C293.671 249.39 293.807 247.754 293.164 246.346L286.883 232.492C287.501 231.375 288.11 230.257 288.696 229.12L303.712 226.708C305.241 226.467 306.53 225.448 307.123 224.018C307.716 222.595 307.535 220.963 306.632 219.705L297.773 207.351C298.159 206.133 298.536 204.909 298.896 203.676L313.147 198.384C314.596 197.844 315.667 196.596 315.965 195.078C316.275 193.562 315.768 192 314.638 190.945L303.523 180.532C303.662 179.279 303.788 178.018 303.9 176.759L316.876 168.763C318.19 167.957 318.992 166.522 318.995 164.976C318.998 163.43 318.206 161.994 316.895 161.181L303.953 153.131C303.846 151.868 303.725 150.606 303.592 149.352L314.749 138.99C315.883 137.936 316.392 136.372 316.089 134.858C315.794 133.338 314.731 132.087 313.284 131.544L299.059 126.189C298.705 124.955 298.333 123.733 297.952 122.515L306.857 110.197C307.765 108.945 307.957 107.313 307.37 105.881C306.783 104.455 305.495 103.435 303.971 103.181L288.964 100.708C288.382 99.5683 287.776 98.4463 287.165 97.3331L293.503 83.4965C294.152 82.088 294.023 80.4481 293.164 79.1662C292.309 77.8785 290.857 77.1221 289.305 77.1779L274.064 77.6767C273.278 76.69 272.48 75.7145 271.665 74.7542L275.194 59.9195C275.551 58.4131 275.11 56.8325 274.015 55.7359C272.929 54.6424 271.349 54.1892 269.841 54.54L254.996 58.008C254.036 57.1919 253.061 56.3829 252.075 55.5933L252.641 40.3582C252.703 38.8157 251.952 37.349 250.668 36.491C249.381 35.6271 247.752 35.493 246.344 36.1302L232.485 42.4158C231.369 41.8 230.249 41.1875 229.118 40.5982L226.702 25.5774C226.457 24.055 225.438 22.7638 224.012 22.171C222.588 21.5752 220.954 21.7625 219.698 22.6625L207.336 31.5168C206.121 31.1279 204.902 30.7547 203.67 30.3982L198.373 16.1475C197.836 14.6953 196.59 13.629 195.071 13.325C193.556 13.024 191.994 13.5235 190.938 14.6481L180.526 25.7708C179.273 25.6295 178.012 25.5042 176.753 25.3983L168.756 12.4185C167.948 11.1044 166.515 10.3021 164.97 10.299ZM164.634 37.5989C166.979 37.6583 169.301 38.6138 171.048 40.4491C174.536 44.1284 174.39 49.9352 170.716 53.4287C167.052 56.9252 161.251 56.7773 157.758 53.101C154.273 49.4276 154.419 43.6178 158.09 40.1214C159.922 38.3731 162.289 37.5396 164.634 37.5989ZM185.665 52.7513C218.749 58.9808 246.188 78.5886 263.092 107.296L251.956 132.339C250.08 136.561 251.975 141.508 256.186 143.39L277.629 152.61C281.081 189.291 267.008 221.933 245.482 243.063L225.59 238.718C221.076 237.741 216.626 240.608 215.649 245.13L211.071 266.93C196.859 273.346 181.02 276.554 164.414 276.52C147.428 276.485 131.325 272.527 116.887 265.778L112.33 244.464C111.371 239.944 106.939 237.058 102.424 238.02L83.8635 241.98C59.3717 214.358 49.9912 185.993 53.0485 151.309L72.2197 142.57C76.4413 140.706 78.3556 135.767 76.4914 131.536L75.9764 130.369L76.1374 130.442C70.6179 118.232 68.0097 112.357 66.5722 109.075C80.9954 83.7879 104.938 61.0275 143.986 52.8346L158.025 67.5276C161.209 70.8759 166.497 71.0107 169.842 67.8232L185.665 52.7513ZM63.3083 125.692C65.5428 130.666 63.2024 135.901 58.5705 137.941C53.9386 139.988 48.5295 137.884 46.4861 133.243C44.4428 128.603 47.1821 122.819 51.1714 121.138C55.1607 119.457 60.3184 120.23 63.3083 125.692ZM273.762 121.256C274.952 121.28 276.158 121.536 277.314 122.052C281.937 124.115 284.016 129.548 281.954 134.177C279.894 138.809 274.477 140.886 269.85 138.821C265.232 136.759 263.155 131.332 265.215 126.696C266.759 123.224 270.191 121.187 273.762 121.256ZM95.9928 249.63C100.256 249.601 104.098 252.564 105.019 256.904C106.067 261.861 102.905 266.74 97.957 267.792C93.0055 268.849 88.1405 265.686 87.086 260.726C86.0373 255.757 89.192 250.887 94.1435 249.829C94.7624 249.698 95.3837 249.633 95.9928 249.63ZM231.969 250.354C232.578 250.363 233.195 250.427 233.813 250.562C238.76 251.631 241.906 256.526 240.834 261.479C239.762 266.432 234.874 269.582 229.93 268.513C224.983 267.435 221.85 262.549 222.922 257.587C223.857 253.251 227.708 250.302 231.969 250.354Z" fill="black"/>
</svg>
