<?xml version="1.0" encoding="UTF-8"?>
<svg width="512" height="512" viewBox="0 0 512 512" fill="none" xmlns="http://www.w3.org/2000/svg" version="1.1">
<path d="M256.517 12.8307C254.082 12.8257 251.815 14.0802 250.537 16.1453L237.856 36.5415C235.867 36.7003 233.878 36.8895 231.903 37.1039L215.571 19.5139C213.916 17.7355 211.454 16.9384 209.069 17.4028C206.675 17.8765 204.704 19.5436 203.849 21.828L195.412 44.2437C193.469 44.7973 191.544 45.3821 189.623 45.9821L170.212 31.9532C168.24 30.5226 165.664 30.2169 163.413 31.1509C161.167 32.0756 159.555 34.1032 159.16 36.4999L155.25 60.1476C153.464 61.0685 151.696 62.0217 149.933 62.9892L128.142 52.9971C125.927 51.9796 123.346 52.1849 121.326 53.5376C119.298 54.8809 118.106 57.1867 118.194 59.6171L118.987 83.6218C117.432 84.8592 115.891 86.1275 114.369 87.4068L90.9989 81.8474C88.6256 81.2895 86.1376 81.9885 84.4148 83.7043C82.6827 85.4247 81.9713 87.9119 82.524 90.2874L87.9873 113.68C86.7064 115.193 85.4339 116.719 84.1901 118.269L60.1888 117.384C57.7681 117.31 55.4528 118.469 54.0965 120.492C52.7355 122.505 52.5243 125.088 53.528 127.311L63.4303 149.15C62.4603 150.9 61.4952 152.664 60.5669 154.455L36.9101 158.255C34.507 158.64 32.4755 160.239 31.5369 162.486C30.603 164.737 30.9048 167.31 32.3179 169.288L46.2669 188.75C45.6542 190.668 45.0596 192.591 44.498 194.532L22.0477 202.877C19.7692 203.722 18.0867 205.686 17.6079 208.078C17.129 210.466 17.916 212.929 19.6921 214.596L37.2081 230.993C36.9855 232.967 36.7927 234.96 36.6213 236.944L16.1731 249.541C14.1029 250.815 12.839 253.067 12.834 255.507C12.829 257.946 14.0835 260.208 16.1486 261.486L36.5448 274.167C36.708 276.156 36.8928 278.139 37.1071 280.114L19.5239 296.445C17.7408 298.1 16.9437 300.563 17.4128 302.948C17.8818 305.342 19.5562 307.315 21.8312 308.174L44.247 316.604C44.8006 318.548 45.3873 320.48 45.9921 322.4L31.9632 341.805C30.5373 343.781 30.2249 346.351 31.1543 348.597C32.0836 350.853 34.1151 352.466 36.5166 352.857L60.1509 356.753C61.0719 358.549 62.0204 360.314 62.9925 362.077L53.0005 383.862C51.983 386.076 52.1883 388.655 53.5409 390.683C54.8936 392.717 57.1994 393.908 59.6205 393.816L83.6184 393.023C84.8652 394.587 86.1241 396.119 87.4035 397.641L81.844 421.018C81.2816 423.386 81.9828 425.861 83.7077 427.588C85.4187 429.325 87.9086 430.025 90.2842 429.473L113.677 424.016C115.194 425.311 116.729 426.567 118.279 427.807L117.388 451.814C117.29 454.244 118.472 456.552 120.495 457.913C122.509 459.27 125.089 459.477 127.308 458.469L149.14 448.573C150.895 449.552 152.658 450.508 154.445 451.436L158.258 475.086C158.643 477.494 160.242 479.53 162.489 480.46C164.731 481.398 167.314 481.098 169.291 479.685L188.754 465.73C190.671 466.342 192.594 466.937 194.535 467.498L202.88 489.942C203.726 492.221 205.69 493.912 208.082 494.382C210.469 494.87 212.93 494.079 214.593 492.298L230.996 474.775C232.97 475.007 234.959 475.201 236.947 475.382L249.545 495.83C250.813 497.891 253.075 499.164 255.51 499.169C257.945 499.174 260.214 497.915 261.496 495.855L274.171 475.458C276.16 475.286 278.149 475.1 280.124 474.876L296.449 492.466C298.104 494.254 300.566 495.055 302.951 494.577C305.345 494.113 307.323 492.434 308.178 490.159L316.608 467.749C318.551 467.196 320.483 466.609 322.403 466.004L341.808 480.04C343.78 481.461 346.354 481.772 348.6 480.842C350.851 479.922 352.465 477.888 352.86 475.487L356.763 451.852C358.55 450.931 360.317 449.969 362.08 449.011L383.872 458.996C386.086 460.014 388.663 459.817 390.687 458.469C392.716 457.116 393.902 454.818 393.819 452.383L393.033 428.371C394.588 427.134 396.127 425.888 397.644 424.6L421.014 430.152C423.388 430.715 425.874 430.025 427.592 428.295C429.324 426.575 430.035 424.103 429.483 421.732L424.019 398.333C425.305 396.816 426.577 395.29 427.817 393.731L451.818 394.622C454.238 394.725 456.554 393.543 457.91 391.515C459.271 389.492 459.485 386.914 458.472 384.695L448.576 362.87C449.551 361.111 450.509 359.35 451.433 357.558L475.09 353.759C477.497 353.378 479.529 351.773 480.463 349.521C481.397 347.278 481.111 344.708 479.689 342.725L465.733 323.263C466.341 321.345 466.936 319.416 467.502 317.475L489.952 309.137C492.235 308.286 493.922 306.32 494.392 303.928C494.88 301.541 494.082 299.08 492.301 297.417L474.792 281.014C475.009 279.04 475.209 277.053 475.385 275.07L495.827 262.472C497.897 261.203 499.161 258.941 499.166 256.507C499.171 254.072 497.923 251.809 495.858 250.527L475.468 237.846C475.3 235.857 475.109 233.868 474.899 231.893L492.476 215.568C494.264 213.908 495.065 211.444 494.587 209.059C494.123 206.665 492.448 204.694 490.169 203.839L467.759 195.402C467.201 193.459 466.614 191.534 466.014 189.613L480.043 170.209C481.474 168.237 481.777 165.665 480.852 163.41C479.927 161.163 477.898 159.556 475.496 159.156L451.855 155.26C450.939 153.464 449.983 151.697 449.02 149.943L459.006 128.145C460.028 125.926 459.825 123.343 458.472 121.323C457.124 119.294 454.837 118.103 452.393 118.191L428.381 118.977C427.144 117.422 425.887 115.885 424.603 114.373L430.162 91.0022C430.725 88.629 430.03 86.1389 428.305 84.4115C426.594 82.6887 424.104 81.9747 421.729 82.5274L398.343 87.9908C396.83 86.7052 395.295 85.4306 393.741 84.1868L394.632 60.1856C394.73 57.7556 393.548 55.4449 391.525 54.0933C389.497 52.7323 386.93 52.521 384.712 53.5248L362.88 63.4272C361.12 62.457 359.357 61.492 357.574 60.5637L353.768 36.9002C353.383 34.5018 351.778 32.4676 349.531 31.5337C347.288 30.5952 344.713 30.8902 342.735 32.308L323.259 46.257C321.346 45.6443 319.425 45.0564 317.484 44.4948L309.14 22.0445C308.294 19.7567 306.33 18.0768 303.938 17.598C301.551 17.1237 299.09 17.9106 297.427 19.6822L281.024 37.2048C279.049 36.9822 277.063 36.7848 275.079 36.6181L262.482 16.1699C261.208 14.0995 258.951 12.8358 256.517 12.8307ZM255.987 55.8387C259.682 55.9322 263.341 57.4375 266.092 60.3288C271.587 66.125 271.356 75.2731 265.569 80.7767C259.796 86.285 250.658 86.0521 245.155 80.2604C239.665 74.4734 239.895 65.3208 245.678 59.8125C248.564 57.0583 252.293 55.7452 255.987 55.8387ZM289.12 79.7095C341.24 89.5234 384.467 120.413 411.097 165.638L393.553 205.09C390.598 211.743 393.583 219.536 400.217 222.5L433.998 237.026C439.436 294.812 417.266 346.236 383.354 379.524L352.016 372.679C344.905 371.14 337.895 375.656 336.356 382.781L329.144 417.124C306.755 427.231 281.801 432.285 255.641 432.231C228.881 432.176 203.514 425.941 180.767 415.309L173.588 381.731C172.079 374.61 165.096 370.064 157.983 371.578L128.743 377.818C90.159 334.302 75.3811 289.616 80.1975 234.976L110.4 221.209C117.05 218.272 120.066 210.491 117.129 203.826L116.318 201.988L116.571 202.102C107.876 182.867 103.767 173.611 101.503 168.441C124.225 128.604 161.944 92.7478 223.459 79.8408L245.575 102.988C250.592 108.263 258.923 108.475 264.193 103.454L289.12 79.7095ZM96.3607 194.619C99.881 202.455 96.1938 210.702 88.8969 213.917C81.5997 217.14 73.0783 213.827 69.8593 206.516C66.6403 199.204 70.9557 190.093 77.2404 187.445C83.5251 184.796 91.6505 186.015 96.3607 194.619ZM427.906 187.631C429.782 187.669 431.681 188.072 433.502 188.885C440.786 192.134 444.06 200.693 440.811 207.986C437.567 215.284 429.032 218.556 421.743 215.302C414.469 212.053 411.196 203.504 414.441 196.201C416.874 190.731 422.28 187.522 427.906 187.631ZM147.851 389.869C154.568 389.823 160.621 394.491 162.071 401.328C163.723 409.138 158.741 416.824 150.946 418.481C143.145 420.147 135.481 415.164 133.82 407.349C132.168 399.521 137.138 391.849 144.938 390.183C145.913 389.977 146.892 389.875 147.851 389.869ZM362.066 391.01C363.025 391.024 363.998 391.125 364.971 391.337C372.765 393.021 377.721 400.733 376.032 408.535C374.343 416.338 366.643 421.301 358.854 419.616C351.06 417.918 346.124 410.222 347.813 402.405C349.287 395.573 355.353 390.928 362.066 391.01Z" fill="black"/>
<path d="M299.91 167.918C302.703 169.53 302.35 173.574 299.326 174.695C285.394 179.862 272.136 182.651 256 182.651C239.863 182.651 226.605 179.862 212.673 174.695C209.649 173.574 209.296 169.53 212.09 167.918C226.267 159.738 239.651 155.326 256 155.326C272.349 155.326 285.732 159.738 299.91 167.918Z" fill="black"/>
<path d="M330.965 191.271C332.42 193.437 331.874 196.564 329.557 197.763C306.597 209.646 283.369 216.278 256 216.278C228.631 216.278 205.403 209.646 182.443 197.763C180.126 196.564 179.564 193.422 180.966 191.222C182.644 188.59 184.165 185.857 186.37 183.867C189.519 181.026 193.848 179.485 197.47 177.37C198.71 176.646 200.227 176.476 201.543 177.051C219.131 184.73 235.653 188.953 256 188.953C276.346 188.953 292.868 184.73 310.456 177.05C311.772 176.476 313.289 176.648 314.542 177.349C317.873 179.214 321.87 180.522 324.732 183.064C327.243 185.293 329.002 188.348 330.965 191.271Z" fill="black"/>
<path d="M352.794 217.748C353.497 219.92 352.915 222.519 350.934 223.654C321.814 240.331 291.337 249.751 256 249.751C220.662 249.751 190.186 240.331 161.066 223.653C159.085 222.519 158.505 219.924 159.238 217.762C160.139 215.106 160.546 212.522 162.448 210.013C164.432 207.398 168.293 204.863 171.216 202.413C172.67 201.195 174.757 200.837 176.426 201.738C201.138 215.081 226.298 222.58 256 222.58C285.702 222.58 310.862 215.081 335.574 201.738C337.243 200.837 339.328 201.196 340.774 202.424C343.764 204.964 347.725 207.595 349.778 210.313C351.599 212.724 351.97 215.203 352.794 217.748Z" fill="black"/>
<path d="M369.832 246.845C370.219 248.882 369.588 251.149 367.8 252.198C333.727 272.197 297.529 283.532 256 283.532C214.47 283.532 178.273 272.197 144.2 252.198C142.412 251.149 141.78 248.884 142.186 246.851C142.778 243.884 142.683 240.975 144.26 238.126C145.788 235.366 148.986 232.664 151.493 230.019C152.993 228.436 155.459 227.87 157.348 228.96C187.514 246.355 219.229 256.207 256 256.207C292.771 256.207 324.486 246.355 354.652 228.96C356.541 227.87 359.003 228.438 360.496 230.028C363.038 232.737 366.292 235.507 367.856 238.336C369.392 241.116 369.282 243.953 369.832 246.845Z" fill="black"/>
<path d="M383.244 277.736C383.456 279.651 382.768 281.687 381.1 282.651C342.953 304.688 302.282 317.159 256 317.159C209.717 317.159 169.047 304.688 130.9 282.651C129.231 281.687 128.544 279.646 128.693 277.725C128.927 274.719 128.386 271.754 129.586 268.833C130.842 265.775 133.684 262.765 135.935 259.803C137.374 257.91 140.096 257.125 142.153 258.319C176.818 278.432 213.712 289.833 256 289.833C298.287 289.833 335.181 278.432 369.846 258.319C371.903 257.125 374.641 257.903 376.119 259.767C378.259 262.464 380.912 265.203 382.062 267.981C383.387 271.181 382.878 274.433 383.244 277.736Z" fill="black"/>
<path d="M237.191 350.537C239.268 350.675 241.063 349.161 241.52 347.13C243.792 337.031 249.419 329.882 256 329.882C262.581 329.882 268.207 337.031 270.479 347.13C270.936 349.161 272.732 350.674 274.809 350.537C317.559 347.702 355.272 335.239 391.488 315.101C393.075 314.219 393.817 312.362 393.739 310.549C393.583 306.896 394.476 303.289 393.392 299.728C392.531 296.898 390.277 294.097 388.427 291.327C387.025 289.227 384.091 288.23 381.893 289.473C343.488 311.187 302.535 323.46 256 323.46C209.464 323.46 168.511 311.187 130.106 289.473C127.908 288.23 124.978 289.228 123.582 291.333C121.72 294.142 119.441 296.984 118.568 299.856C117.499 303.375 118.395 306.94 118.254 310.548C118.183 312.362 118.925 314.219 120.511 315.101C156.728 335.24 194.44 347.702 237.191 350.537Z" fill="black"/>
</svg>
