<?xml version="1.0" encoding="UTF-8"?>
<svg xmlns="http://www.w3.org/2000/svg" width="500px" height="500px" viewBox="0 0 500 500" version="1.1">
  <title>Utah Rust logo</title>
  <!-- Modified from ??? -->
  <svg xmlns="http://www.w3.org/2000/svg" viewBox="0 0 309 309" version="1.1">
    <g style="fill: #000000; fill-rule: nonzero; stroke: none; stroke-width: 1;" transform="rotate(182 154.5 154.5)">
      <path id="rust-gear" d="m 238.90927,25.213761 c -1.293,-0.846615 -2.93335,-0.965275 -4.32845,-0.309921 l -13.81343,6.450417 c -1.11276,-0.605048 -2.23612,-1.193908 -3.3608,-1.764607 l -2.58728,-15.014529 c -0.26372,-1.519422 -1.29701,-2.796893 -2.72608,-3.376517 -1.43722,-0.57792 -3.06313,-0.374554 -4.30963,0.543822 l -12.25627,8.995653 c -1.22535,-0.379261 -2.45178,-0.735592 -3.68092,-1.082167 L 186.38673,5.4673122 c -0.55272,-1.444223 -1.81678,-2.4998241 -3.33745,-2.7833763 -1.51501,-0.2868664 -3.07481,0.2326952 -4.11577,1.3702389 L 168.65747,15.273986 c -1.26907,-0.129402 -2.53943,-0.23522 -3.81229,-0.331843 L 156.72068,2.0752837 C 155.89585,0.76665499 154.45194,-0.01894198 152.90918,3.7223183e-4 151.36479,0.01148907 149.93191,0.82467035 149.13626,2.1475432 l -7.89922,13.0396278 c -1.25559,0.119158 -2.51451,0.259563 -3.76736,0.4123 L 126.96909,4.5424119 c -1.06867,-1.1192684 -2.63402,-1.6100302 -4.14489,-1.2947275 -1.51739,0.3144507 -2.75782,1.3904985 -3.28732,2.8453189 l -5.20332,14.3333997 c -1.20533,0.360123 -2.41127,0.730968 -3.60973,1.123746 L 98.267249,12.760458 c -1.261389,-0.878812 -2.89426,-1.065107 -4.316785,-0.459395 -1.421758,0.599166 -2.429307,1.899286 -2.666142,3.42941 l -2.304107,15.045666 c -1.122362,0.594221 -2.246863,1.197585 -3.361579,1.828565 L 71.721728,26.42507 c -1.41147,-0.62806 -3.045899,-0.482086 -4.323872,0.3875 -1.277128,0.873618 -2.008504,2.346485 -1.942551,3.888006 l 0.671554,15.184471 c -0.990519,0.807457 -1.973211,1.623817 -2.944674,2.461383 L 48.351366,45.002038 c -1.504799,-0.340082 -3.080221,0.12109 -4.164004,1.227133 -1.082172,1.103538 -1.517491,2.686223 -1.150863,4.18842 l 3.631035,14.790644 c -0.802727,0.972734 -1.596094,1.965738 -2.374813,2.961225 L 29.052386,67.780589 c -1.542388,-0.04031 -2.9952,0.719384 -3.84344,2.01487 -0.84823,1.295476 -0.965295,2.933371 -0.309932,4.328451 l 6.450434,13.813432 c -0.602697,1.114292 -1.19161,2.232574 -1.762289,3.357244 L 14.57617,93.884197 c -1.52191,0.262119 -2.79936,1.295413 -3.376501,2.726078 -0.580406,1.435621 -0.373897,3.065121 0.537927,4.310865 l 8.997971,12.25274 c -0.379253,1.22531 -0.73688,2.45602 -1.080915,3.68679 l -14.1862636,5.45611 c -1.4433739,0.55679 -2.5001851,1.81499 -2.784581,3.33162 -0.2876414,1.52153 0.2333428,3.08383 1.3749808,4.12396 l 11.2173868,10.26426 c -0.132595,1.27402 -0.24002,2.54135 -0.334165,3.81585 l -12.8645354,8.12095 c -1.30862276,0.8248 -2.09333548,2.26733 -2.07723143435,3.815 C 0.01472623,157.33855 0.82785629,158.77141 2.1474186,159.56138 l 13.0360554,7.89693 c 0.120931,1.26374 0.259565,2.51449 0.412299,3.76735 L 4.5363943,181.72981 c -1.1201234,1.0646 -1.6049951,2.62364 -1.2865154,4.14014 0.3078858,1.5166 1.3892612,2.75192 2.8440863,3.28143 l 14.3310718,5.20687 c 0.357749,1.21432 0.738756,2.41479 1.133162,3.61083 L 12.76264,210.4269 c -0.894439,1.25819 -1.065821,2.89531 -0.461724,4.32029 0.600776,1.4193 1.901252,2.42399 3.43052,2.65674 l 15.039811,2.3053 c 0.593437,1.12891 1.20003,2.24849 1.828533,3.36158 l -6.170207,13.89801 c -0.629645,1.41393 -0.485314,3.05083 0.387494,4.32388 0.867114,1.27633 2.344151,2.01204 3.885677,1.94608 l 15.186809,-0.6751 c 0.807473,0.99052 1.623834,1.9732 2.461414,2.94468 l -3.342101,14.82726 c -0.340107,1.5048 0.117892,3.08516 1.227135,4.16401 1.100311,1.08712 2.683479,1.51931 4.184842,1.14857 l 14.796522,-3.63225 c 0.96952,0.80766 1.959536,1.60021 2.9543,2.38548 l -0.388892,15.24031 c -0.03963,1.53584 0.721836,2.99683 2.014861,3.84346 1.293015,0.84662 2.936041,0.96355 4.332018,0.31224 l 13.809884,-6.45275 c 1.1175,0.59781 2.239825,1.18822 3.367736,1.75398 l 2.583766,15.01221 c 0.260497,1.52436 1.292125,2.80428 2.726061,3.37649 1.433985,0.58286 3.067598,0.37555 4.310861,-0.53794 l 12.25041,-8.99443 c 1.22533,0.37925 2.45602,0.73683 3.68678,1.08089 l 5.45382,14.18985 c 0.55594,1.43927 1.81734,2.49659 3.33393,2.78102 1.51583,0.29102 3.07904,-0.23142 4.12164,-1.37143 l 10.26782,-11.21506 c 1.26908,0.12938 2.54266,0.23028 3.81231,0.33182 l 8.12681,12.86333 c 0.82483,1.30862 2.26326,2.09726 3.80683,2.082 1.54768,-0.0161 2.97552,-0.82698 3.77526,-2.15071 l 7.9051,-13.04086 c 1.25557,-0.11925 2.50557,-0.24825 3.75916,-0.40751 l 10.50292,11.05351 c 1.06704,1.12174 2.62811,1.61672 4.14137,1.29237 1.51737,-0.31446 2.75245,-1.38229 3.28032,-2.83467 l 5.20565,-14.33696 c 1.2094,-0.36099 2.41511,-0.73151 3.61438,-1.13083 l 12.45426,8.79322 c 1.2517,0.89359 2.89262,1.06761 4.31679,0.4594 1.42495,-0.60409 2.4323,-1.90085 2.66257,-3.43174 l 2.30298,-15.03624 c 1.12808,-0.59754 2.24811,-1.20185 3.36036,-1.83441 l 13.89689,6.17965 c 1.41232,0.63208 3.04905,0.48264 4.32618,-0.39107 1.27394,-0.86873 2.01306,-2.33492 1.9438,-3.8821 l -0.6751,-15.18683 c 0.98805,-0.80909 1.97304,-1.62899 2.94699,-2.46495 l 14.82848,3.34797 c 1.50889,0.33924 3.0875,-0.12145 4.16637,-1.23069 1.08708,-1.10031 1.51569,-2.68585 1.14493,-4.1872 l -3.62517,-14.79188 c 0.80019,-0.97438 1.59484,-1.96147 2.37606,-2.95537 l 15.23677,0.38656 c 1.5408,0.0429 2.99681,-0.72184 3.84343,-2.01487 0.84662,-1.29302 0.96724,-2.92856 0.31347,-4.32615 l -6.44686,-13.81109 c 0.60014,-1.11597 1.18791,-2.24007 1.76106,-3.3631 l 15.00512,-2.58837 c 1.52596,-0.26299 2.8066,-1.29575 3.37882,-2.72964 0.58286,-1.43403 0.37561,-3.06246 -0.54026,-4.30733 l -8.9921,-12.25396 c 0.37684,-1.22693 0.73199,-2.45413 1.07853,-3.68324 l 14.18627,-5.45612 c 1.44424,-0.55273 2.49683,-1.81525 2.7869,-3.33515 0.28688,-1.51501 -0.23533,-3.07304 -1.37374,-4.11811 l -11.22092,-10.26659 c 0.13508,-1.27243 0.23953,-2.54366 0.33538,-3.81 l 12.86564,-8.13036 c 1.31269,-0.82568 2.10012,-2.26996 2.08077,-3.8127 -0.0136,-1.54602 -0.81688,-2.97245 -2.14716,-3.77295 l -13.04085,-7.90509 c -0.11927,-1.25555 -0.25496,-2.5084 -0.41338,-3.75793 l 11.05706,-10.50061 c 1.12174,-1.06702 1.6156,-2.63189 1.29698,-4.14847 -0.31275,-1.5092 -1.38927,-2.7519 -2.84409,-3.28141 l -14.32987,-5.20101 c -0.35848,-1.2078 -0.73324,-2.4178 -1.1285,-3.61793 l 8.79324,-12.454234 c 0.89448,-1.258187 1.06671,-2.896737 0.45939,-4.316773 -0.60657,-1.426602 -1.89825,-2.428635 -3.42589,-2.663834 l -15.04209,-2.301747 c -0.59915,-1.125616 -1.20253,-2.250131 -1.82856,-3.361587 l 6.17841,-13.902782 c 0.62643,-1.408992 0.47785,-3.047137 -0.39337,-4.322654 -0.86711,-1.276359 -2.33899,-2.0122 -3.88214,-1.943774 l -15.19157,0.666917 c -0.80498,-0.988911 -1.62261,-1.967328 -2.46019,-2.938805 L 263.699,48.353796 c 0.34337,-1.509698 -0.1188,-3.08378 -1.22482,-4.167547 -1.10516,-1.079695 -2.6867,-1.514415 -4.18485,-1.148557 l -14.79653,3.632246 c -0.97272,-0.80275 -1.96057,-1.596223 -2.95768,-2.3725 l 0.38885,-15.240326 c 0.0404,-1.542384 -0.72183,-2.996819 -2.01485,-3.843455 z m -15.18904,22.686884 c 1.93217,1.330311 3.35605,3.39901 3.8172,5.890336 0.91257,4.986734 -2.38081,9.771567 -7.36587,10.69228 -4.97927,0.928059 -9.75779,-2.363201 -10.67692,-7.350683 -0.9133,-4.980241 2.38166,-9.767505 7.36591,-10.692312 2.48961,-0.46404 4.92749,0.130067 6.85968,1.460379 z m 9.34493,24.178442 c 24.31381,23.284544 36.59359,54.694363 35.07865,87.973913 l -23.00449,14.89847 c -3.87727,2.51333 -4.99072,7.69237 -2.49051,11.56812 l 12.92822,19.43354 c -17.13777,32.61383 -46.75214,52.27487 -76.32406,58.22172 l -14.29166,-14.50234 c -3.24793,-3.28302 -8.5412,-3.31144 -11.82906,-0.0561 l -15.73924,15.76276 C 121.98366,262.99289 106.96228,257.03112 93.069698,247.93472 78.858745,238.62991 67.530344,226.52124 59.119643,212.98316 l 7.82107,-20.34411 c 1.665862,-4.31032 -0.471905,-9.14793 -4.778911,-10.80809 L 44.450048,175.01371 C 39.01582,138.49905 46.646513,109.61407 68.147374,82.227494 l 20.832516,3.147791 c 4.554656,0.743508 8.855318,-2.348625 9.603695,-6.910685 l 0.205954,-1.259019 0.09527,0.148571 C 100.92806,64.111865 101.9514,57.765573 102.53924,54.231218 128.43061,40.923134 160.91701,34.930014 198.10301,49.3892 l 3.73744,19.974884 c 0.83935,4.544003 5.19569,7.544449 9.73882,6.701013 z M 90.731027,66.36955 c -0.844216,5.387221 -5.663526,8.494741 -10.658023,7.674765 -4.997803,-0.815113 -8.380653,-5.530939 -7.558234,-10.534546 0.82243,-5.003586 6.275509,-8.35309 10.535501,-7.582953 4.259983,0.770148 8.158367,4.234716 7.680756,10.442734 z m 178.728233,111.2055 c 0.98411,0.67032 1.85454,1.54274 2.54094,2.60648 2.74713,4.25248 1.52164,9.93895 -2.7341,12.69105 -4.25481,2.75615 -9.9276,1.53765 -12.67558,-2.71892 -2.74225,-4.24926 -1.51888,-9.93009 2.73761,-12.68873 3.18995,-2.06526 7.17711,-1.89809 10.13113,0.11012 z M 50.43411,188.04533 c 3.58733,2.30401 5.188402,6.88412 3.589219,11.02259 -1.828497,4.72562 -7.141606,7.08633 -11.861422,5.26514 -4.72553,-1.81786 -7.073825,-7.12434 -5.248626,-11.85567 1.83496,-4.73548 7.136996,-7.09241 11.862517,-5.27456 0.590142,0.22808 1.145972,0.51313 1.658256,0.84258 z m 113.51714,74.85904 c 0.50533,0.33956 0.9876,0.73047 1.43183,1.18068 3.5606,3.59701 3.52323,9.41564 -0.0795,12.97952 -3.60271,3.56394 -9.41771,3.53357 -12.97585,-0.0618 -3.55577,-3.60439 -3.51281,-9.40834 0.0948,-12.97968 3.15161,-3.12199 7.98752,-3.4894 11.52882,-1.11877 z" />
    </g>
  </svg>
  <!-- Modified from https://upload.wikimedia.org/wikipedia/commons/f/f6/Flag_of_Utah.svg -->
  <svg xmlns="http://www.w3.org/2000/svg" version="1.1" x="12.5%" y="15%" width="75%" height="75%" viewBox="50 30 150 70">
    <style>
    .beehive-inner {
      fill: black;
    }

    .beehive-door {
      fill: white;
    }

    .beehive-outline {
      fill: white;
    }
    </style>
    <g transform="matrix(0.6149532,0,0,0.6149532,-708.32151,-453.44927)">
      <g>
        <g id="beehive">
          <g class="beehive-inner">
            <path class="beehive-outline" d="m 1357.51,905.483 c 0,0 126.709,1.311 90.395,-53.757 0,0 6.41,-11.261 -8.271,-21.984 0,0 6.613,-15.108 -12.686,-18.005 0,0 6.678,-10.161 -8.68,-18.028 0,0 4.006,-12.612 -16.357,-17.614 0,0 -2.756,-9.36 -19.529,-6.642 0,0 -9.514,-14.772 -30.045,-12.671 l 3.256,148.703"/>
            <path class="beehive-outline" d="m 1354.936,905.414 c 0,0 -126.708,1.312 -90.396,-53.757 0,0 -6.408,-11.26 8.271,-21.983 0,0 -6.613,-15.109 12.688,-18.005 0,0 -6.678,-10.162 8.678,-18.029 0,0 -4.006,-12.611 16.359,-17.614 0,0 2.754,-9.359 19.527,-6.641 0,0 9.516,-14.772 30.046,-12.672 l -3.254,148.704"/>
            <g>
              <path d="m 1381.74,770.405 c 0,0 -6.814,-8.85 -25.795,-9.833 v 15.077 c 0,0 21.252,0.492 25.795,-5.244 z"/>
              <path d="m 1400.721,778.272 c 0,0 -1.947,-11.615 -21.656,-2.612 0,0 -11.113,4.415 -23.119,3.595 l 0.813,11.473 c -10e-4,0 30.983,0.164 43.962,-12.456 z"/>
              <path d="m 1415.688,792.408 c 0,0 2.189,-13.03 -13.385,-12.169 0,0 -9.004,12.538 -45.141,13.644 v 14.504 c 0,0 43.072,0.738 58.526,-15.979 z"/>
              <path d="m 1417.998,795.972 c 0,0 -15.816,15.734 -60.836,16.225 v 17.456 c 0,0 41.125,0.162 65.623,-16.842 0,10e-4 10.869,-5.858 -4.787,-16.839 z"/>
              <path d="M 1430.166,813.919"/>
              <path d="m 1430.166,813.919 c 0,0 -24.902,17.945 -72.273,19.42 v 20.814 c 0,0 66.189,-3.278 79.492,-25.239 0,0 5.029,-6.884 -7.219,-14.995 z"/>
              <path d="m 1439.656,832.603 c 0,0 -20.928,24.337 -81.764,23.846 v 20.157 c 0,0 61.322,0.491 84.928,-22.001 0,-10e-4 9.735,-9.219 -3.164,-22.002 z"/>
              <path d="m 1446.342,856.448 c 0,0 -26.639,23.601 -88.449,23.928 l -0.73,20.979 c 0,0 66.826,-2.951 89.18,-19.666 -10e-4,-10e-4 9.118,-8.852 -10e-4,-25.241 z"/>
              <g>
                <path d="m 1331.124,770.405 c 0,0 6.813,-8.85 25.796,-9.833 v 15.077 c 0,0 -21.253,0.492 -25.796,-5.244 z"/>
                <path d="m 1312.144,778.272 c 0,0 1.945,-11.615 21.656,-2.612 0,0 11.113,4.415 23.12,3.595 l -0.813,11.473 c 0,0 -30.985,0.164 -43.963,-12.456 z"/>
                <path d="m 1297.177,792.408 c 0,0 -2.189,-13.03 13.385,-12.169 0,0 9.004,12.538 45.142,13.644 v 14.504 c -10e-4,0 -43.074,0.738 -58.527,-15.979 z"/>
                <path d="m 1294.866,795.972 c 0,0 15.816,15.734 60.837,16.225 v 17.456 c 0,0 -41.126,0.162 -65.624,-16.842 0,10e-4 -10.869,-5.858 4.787,-16.839 z"/>
                <path d="M 1282.698,813.919"/>
                <path d="m 1282.698,813.919 c 0,0 24.902,17.945 72.274,19.42 v 20.814 c 0,0 -66.19,-3.278 -79.493,-25.239 0,0 -5.029,-6.884 7.219,-14.995 z"/>
                <path d="m 1273.208,832.603 c 0,0 20.928,24.337 81.765,23.846 v 20.157 c 0,0 -61.323,0.491 -84.927,-22.001 0,-10e-4 -9.734,-9.219 3.162,-22.002 z"/>
                <path d="m 1266.522,856.448 c 0,0 26.639,23.601 88.45,23.928 l 0.73,20.979 c 0,0 -66.825,-2.951 -89.181,-19.666 10e-4,-10e-4 -9.118,-8.852 10e-4,-25.241 z"/>
              </g>
              <path d="m 1357.162,793.883 c 0,0 -1.086,0.017 -2.189,-0.025 -1.103,-0.042 0,14.534 0,14.534 0,0 2.512,0.169 2.918,0"/>
              <path d="m 1356.92,790.728 c 0,0 -1.602,-0.006 -1.867,-0.011 -0.264,-0.006 0.021,-7.978 3.873,-3.922"/>
              <path d="m 1359.111,880.366 c 0,0 -5.963,0.062 -7.425,0 -1.461,-0.063 2.976,20.936 2.976,20.936 0,0 1.883,0.104 4.205,-0.037"/>
              <path d="m 1359.111,856.454 c 0,0 -8.073,0.061 -9.597,0 -1.525,-0.061 3.265,20.137 3.265,20.137 0,0 6.412,0.023 7.953,-0.01"/>
              <path d="m 1359.609,833.277 c 0,0 -5.119,0.098 -8.286,-0.087 -3.168,-0.184 -2.109,11.457 -2.109,11.457 l 4.483,9.432 c 0,0 2.145,0.254 5.912,-0.029"/>
              <path d="m 1360.453,812.133 c 0,0 -6.107,0.107 -9.505,-0.048 -3.396,-0.154 1.104,15.723 1.104,15.723 l 2.92,1.846 c 0,0 2.133,0.031 3.957,-0.026"/>
            </g>
          </g>
          <g class="beehive-outline">
            <path d="m 1358.025,760.715 c 0,0 -1.621,-0.257 -4.469,0.124 -2.849,0.38 4.813,-0.596 4.813,-0.596"/>
            <path d="m 1357.588,882.226 c 0,0 -0.705,-0.011 -0.924,0.004 -0.219,0.015 0.502,0.707 1.002,0.707"/>
            <g class="beehive-door">
              <path d="m 1365.658,903.188 c 0,0 2.873,-20.973 -8.496,-20.973 v 20.973 z"/>
              <path d="m 1348.667,903.188 c 0,0 -2.873,-20.973 8.495,-20.973 v 20.973 z"/>
            </g>
            <polygon points="1357.893,882.578 1357.797,884.439 1355.703,883.253 "/>
            <path d="m 1381.641,851.653 c 0,0 -31.747,3.495 -56.444,-0.967 -24.699,-4.465 8.449,4.843 8.449,4.843 0,0 22.112,2.841 47.218,-0.169 25.105,-3.01 0.777,-3.707 0.777,-3.707 z"/>
          </g>
        </g>
      </g>
    </g>
  </svg>
</svg>
